name C:\Users\u0101727\Documents\MyRepositories\upper-imu-dc\Results\main_tracking\Case_14\kinematics.mot
datacolumns 10
datarows 56
range 8.05000000 8.60000000
endheader 
time	clav_prot	clav_elev	scapula_abduction	scapula_elevation	scapula_upward_rot	scapula_winging	plane_elv	shoulder_elv	axial_rot	
          8.05000000	        -39.47089403	          4.93842964	        -22.75957930	         -4.23364735	         42.42503388	         -8.05438202	         29.67402220	         74.56746538	         -8.22899719	
          8.06000000	        -39.47101337	          4.88867994	        -23.14213659	         -4.20729172	         41.90638223	         -7.95585554	         29.71617979	         74.17861691	         -7.97310810	
          8.07000000	        -39.48123018	          4.85210654	        -23.52522362	         -4.17401361	         41.41205085	         -7.86871504	         29.74922715	         73.77809924	         -7.78248849	
          8.08000000	        -39.49832196	          4.82460442	        -23.90222601	         -4.13666004	         40.94242190	         -7.79036764	         29.76759769	         73.36903736	         -7.64700096	
          8.09000000	        -39.51907565	          4.80222449	        -24.26688398	         -4.09792409	         40.49751977	         -7.71821149	         29.76585879	         72.95442209	         -7.55297532	
          8.10000000	        -39.54076714	          4.78163709	        -24.61420305	         -4.06005123	         40.07699335	         -7.65000929	         29.73969303	         72.53673970	         -7.48573243	
          8.11000000	        -39.56143575	          4.76033361	        -24.94086549	         -4.02472797	         39.68021558	         -7.58409827	         29.68642567	         72.11778495	         -7.43225537	
          8.12000000	        -39.57994703	          4.73661695	        -25.24516390	         -3.99311710	         39.30648560	         -7.51944987	         29.60506969	         71.69862699	         -7.38380995	
          8.13000000	        -39.59591563	          4.70952229	        -25.52666883	         -3.96593880	         38.95526857	         -7.45564929	         29.49604783	         71.27964163	         -7.33840881	
          8.14000000	        -39.60957984	          4.67877766	        -25.78589907	         -3.94351199	         38.62635670	         -7.39285255	         29.36081976	         70.86056856	         -7.30283606	
          8.15000000	        -39.62168043	          4.64480311	        -26.02415578	         -3.92574427	         38.31984357	         -7.33172511	         29.20157246	         70.44062531	         -7.29366229	
          8.16000000	        -39.63334737	          4.60866981	        -26.24351306	         -3.91211981	         38.03588838	         -7.27333161	         29.02101384	         70.01871814	         -7.33662262	
          8.17000000	        -39.64597400	          4.57195968	        -26.44683714	         -3.90173713	         37.77436721	         -7.21896455	         28.82223352	         69.59370880	         -7.46401417	
          8.18000000	        -39.66106197	          4.53652495	        -26.63770265	         -3.89341584	         37.53455096	         -7.16992960	         28.60858181	         69.16464503	         -7.71016782	
          8.19000000	        -39.68003835	          4.50418977	        -26.82014029	         -3.88586066	         37.31492209	         -7.12732387	         28.38355398	         68.73086885	         -8.10535709	
          8.20000000	        -39.70406501	          4.47646337	        -26.99823610	         -3.87784456	         37.11317946	         -7.09184954	         28.15070745	         68.29196084	         -8.66877238	
          8.21000000	        -39.73387565	          4.45433474	        -27.17567424	         -3.86836420	         36.92641670	         -7.06370079	         27.91366294	         67.84754173	         -9.40155534	
          8.22000000	        -39.76967793	          4.43819812	        -27.35533926	         -3.85672831	         36.75141969	         -7.04254786	         27.67621339	         67.39701028	        -10.28135201	
          8.23000000	        -39.81113632	          4.42790845	        -27.53905440	         -3.84257029	         36.58501208	         -7.02761231	         27.44246880	         66.93934175	        -11.26020499	
          8.24000000	        -39.85741496	          4.42291984	        -27.72746269	         -3.82580465	         36.42437446	         -7.01779391	         27.21684747	         66.47307076	        -12.26750844	
          8.25000000	        -39.90723541	          4.42243050	        -27.92000304	         -3.80656703	         36.26727148	         -7.01178932	         27.00369250	         65.99652134	        -13.21882630	
          8.26000000	        -39.95891045	          4.42545931	        -28.11492909	         -3.78517970	         36.11214087	         -7.00815049	         26.80643656	         65.50824147	        -14.02941700	
          8.27000000	        -40.01034725	          4.43083244	        -28.30935149	         -3.76215668	         35.95804513	         -7.00527207	         26.62650879	         65.00748846	        -14.62902930	
          8.28000000	        -40.05906143	          4.43714362	        -28.49934697	         -3.73821530	         35.80454161	         -7.00136036	         26.46240896	         64.49456384	        -14.97377335	
          8.29000000	        -40.10228541	          4.44279657	        -28.68024538	         -3.71423551	         35.65154131	         -6.99447475	         26.30940007	         63.97086062	        -15.05252705	
          8.30000000	        -40.13723311	          4.44618583	        -28.84718555	         -3.69113724	         35.49918657	         -6.98269856	         26.16004226	         63.43863213	        -14.88780239	
          8.31000000	        -40.16148466	          4.44595361	        -28.99587165	         -3.66971467	         35.34773393	         -6.96439895	         26.00541645	         62.90062801	        -14.53228322	
          8.32000000	        -40.17335644	          4.44118644	        -29.12328968	         -3.65050955	         35.19742678	         -6.93846015	         25.83659604	         62.35976964	        -14.06222072	
          8.33000000	        -40.17211837	          4.43146559	        -29.22813838	         -3.63377421	         35.04837006	         -6.90439182	         25.64591113	         61.81892746	        -13.56850366	
          8.34000000	        -40.15801255	          4.41680459	        -29.31090078	         -3.61950129	         34.90043328	         -6.86230207	         25.42778203	         61.28071863	        -13.14613598	
          8.35000000	        -40.13211864	          4.39756239	        -29.37364798	         -3.60746399	         34.75319647	         -6.81278810	         25.17914167	         60.74721323	        -12.88299973	
          8.36000000	        -40.09612655	          4.37436664	        -29.41967901	         -3.59724799	         34.60593870	         -6.75678729	         24.89953659	         60.21954713	        -12.84886260	
          8.37000000	        -40.05204384	          4.34800430	        -29.45301705	         -3.58830839	         34.45767468	         -6.69539327	         24.59094740	         59.69757069	        -13.08560486	
          8.38000000	        -40.00185296	          4.31922845	        -29.47774979	         -3.58009272	         34.30725895	         -6.62963590	         24.25734670	         59.17970389	        -13.59986115	
          8.39000000	        -39.94716322	          4.28849218	        -29.49727376	         -3.57222869	         34.15357154	         -6.56025699	         23.90404971	         58.66310854	        -14.35972356	
          8.40000000	        -39.88893918	          4.25569346	        -29.51361419	         -3.56472139	         33.99576071	         -6.48754598	         23.53695063	         58.14417647	        -15.29736992	
          8.41000000	        -39.82739458	          4.22003485	        -29.52705150	         -3.55808129	         33.83346267	         -6.41129521	         23.16174431	         57.61921916	        -16.31876744	
          8.42000000	        -39.76210160	          4.18005802	        -29.53623848	         -3.55332555	         33.66688226	         -6.33089131	         22.78324471	         57.08516957	        -17.31949545	
          8.43000000	        -39.69228867	          4.13384444	        -29.53882960	         -3.55184091	         33.49664721	         -6.24550358	         22.40493728	         56.54010121	        -18.20291597	
          8.44000000	        -39.61721960	          4.07931644	        -29.53242403	         -3.55514658	         33.32345392	         -6.15429450	         22.02885999	         55.98345938	        -18.89555345	
          8.45000000	        -39.53651381	          4.01454104	        -29.51547710	         -3.56463525	         33.14763818	         -6.05657801	         21.65576588	         55.41604018	        -19.35597578	
          8.46000000	        -39.45031279	          3.93795792	        -29.48787870	         -3.58136857	         32.96884609	         -5.95189248	         21.28543148	         54.83982171	        -19.57625536	
          8.47000000	        -39.35929373	          3.84852507	        -29.45110644	         -3.60595346	         32.78592864	         -5.84001711	         20.91704461	         54.25769671	        -19.57715435	
          8.48000000	        -39.26460007	          3.74584017	        -29.40806112	         -3.63847006	         32.59708481	         -5.72099421	         20.54968890	         53.67308183	        -19.39920706	
          8.49000000	        -39.16775183	          3.63028952	        -29.36274384	         -3.67840993	         32.40018979	         -5.59519480	         20.18288585	         53.08939167	        -19.09231528	
          8.50000000	        -39.07054615	          3.50321170	        -29.31986435	         -3.72461731	         32.19320022	         -5.46340771	         19.81703382	         52.50945252	        -18.70628887	
          8.51000000	        -38.97491954	          3.36699398	        -29.28438885	         -3.77527016	         31.97452503	         -5.32689054	         19.45354577	         51.93501061	        -18.28393621	
          8.52000000	        -38.88274528	          3.22499375	        -29.26100993	         -3.82796105	         31.74327834	         -5.18731708	         19.09456997	         51.36650248	        -17.85727266	
          8.53000000	        -38.79557468	          3.08121589	        -29.25355394	         -3.87992299	         31.49938207	         -5.04659321	         18.74232842	         50.80318053	        -17.44663268	
          8.54000000	        -38.71437607	          2.93977893	        -29.26441376	         -3.92838388	         31.24353173	         -4.90657395	         18.39825792	         50.24355404	        -17.06207794	
          8.55000000	        -38.63935310	          2.80427480	        -29.29414026	         -3.97098999	         30.97706953	         -4.76875680	         18.06222925	         49.68600483	        -16.70633368	
          8.56000000	        -38.56990951	          2.67721528	        -29.34131755	         -4.00617678	         30.70182738	         -4.63405524	         17.73210370	         49.12934937	        -16.37837625	
          8.57000000	        -38.50479105	          2.55971564	        -29.40280075	         -4.03338524	         30.41996417	         -4.50272194	         17.40380993	         48.57317670	        -16.07667054	
          8.58000000	        -38.44237918	          2.45148505	        -29.47429830	         -4.05306957	         30.13379452	         -4.37443634	         17.07196474	         48.01789180	        -15.80120005	
          8.59000000	        -38.38105823	          2.35109484	        -29.55116212	         -4.06650907	         29.84561189	         -4.24851533	         16.73087245	         47.46449763	        -15.55388667	
          8.60000000	        -38.31954734	          2.25641278	        -29.62916390	         -4.07549813	         29.55752787	         -4.12416689	         16.37558910	         46.91422960	        -15.33759327	
